<mxfile host="app.diagrams.net" modified="2023-06-12T16:27:25.304Z" agent="Mozilla/5.0 (Windows NT 10.0; Win64; x64; rv:109.0) Gecko/20100101 Firefox/114.0" etag="6q_jPXSphgopAPyXBKbi" version="21.3.2" type="device">
  <diagram name="Seite-1" id="uukCMZsNi52-b3Le0xTW">
    <mxGraphModel dx="3781" dy="1078" grid="1" gridSize="10" guides="1" tooltips="1" connect="1" arrows="1" fold="1" page="1" pageScale="1" pageWidth="827" pageHeight="1169" math="0" shadow="0">
      <root>
        <mxCell id="0" />
        <mxCell id="1" parent="0" />
        <mxCell id="zNEgu30txlpyItWICn7m-26" value="&lt;div&gt;&lt;b&gt;&lt;br&gt;&lt;/b&gt;&lt;/div&gt;&lt;div&gt;&lt;b&gt;PokemonApp&lt;/b&gt;&lt;/div&gt;&lt;div&gt;&lt;br&gt;&lt;/div&gt;" style="rounded=0;whiteSpace=wrap;html=1;fillColor=none;strokeColor=#d6b656;labelPosition=center;verticalLabelPosition=top;align=center;verticalAlign=bottom;fontSize=14;fontStyle=0;strokeWidth=3;dashed=1;horizontal=1;" parent="1" vertex="1">
          <mxGeometry x="-320" y="300" width="650" height="510" as="geometry" />
        </mxCell>
        <mxCell id="v6YOQeAQ7SYA2Z-97__9-3" value="&lt;div style=&quot;font-size: 14px;&quot;&gt;gibt Pokemon-&lt;/div&gt;&lt;div style=&quot;font-size: 14px;&quot;&gt;Nummer ein&lt;/div&gt;" style="edgeStyle=orthogonalEdgeStyle;rounded=0;orthogonalLoop=1;jettySize=auto;html=1;exitX=0.5;exitY=0.5;exitDx=0;exitDy=0;exitPerimeter=0;fontSize=14;dashed=1;" parent="1" source="zNEgu30txlpyItWICn7m-2" target="HKSCwBE55XKKI-k4aiUd-1" edge="1">
          <mxGeometry relative="1" as="geometry" />
        </mxCell>
        <mxCell id="zNEgu30txlpyItWICn7m-2" value="Benutzer" style="shape=umlActor;verticalLabelPosition=bottom;verticalAlign=top;html=1;outlineConnect=0;fontSize=14;fontStyle=1" parent="1" vertex="1">
          <mxGeometry x="-455" y="400" width="30" height="60" as="geometry" />
        </mxCell>
        <mxCell id="zNEgu30txlpyItWICn7m-25" value="&lt;div&gt;&lt;b&gt;&lt;br&gt;&lt;/b&gt;&lt;/div&gt;&lt;div&gt;&lt;b&gt;Externe REST-API&lt;/b&gt;&lt;/div&gt;&lt;div&gt;&lt;b&gt;&lt;br&gt;&lt;/b&gt;&lt;/div&gt;&lt;div&gt;&quot;PokeAPI&quot; stellt Pokemon-Daten zur Verfügung&lt;br&gt;&lt;/div&gt;" style="rounded=0;whiteSpace=wrap;html=1;labelPosition=center;verticalLabelPosition=middle;align=center;verticalAlign=top;fillColor=#f5f5f5;strokeColor=#666666;fontSize=14;fontStyle=0;horizontal=1;fontColor=#333333;" parent="1" vertex="1">
          <mxGeometry x="440" y="350" width="160" height="160" as="geometry" />
        </mxCell>
        <mxCell id="HKSCwBE55XKKI-k4aiUd-8" style="edgeStyle=orthogonalEdgeStyle;rounded=0;orthogonalLoop=1;jettySize=auto;html=1;endArrow=none;endFill=0;" edge="1" parent="1" source="HKSCwBE55XKKI-k4aiUd-1" target="HKSCwBE55XKKI-k4aiUd-7">
          <mxGeometry relative="1" as="geometry" />
        </mxCell>
        <mxCell id="HKSCwBE55XKKI-k4aiUd-1" value="&lt;div style=&quot;font-size: 14px;&quot;&gt;&lt;b style=&quot;font-size: 14px;&quot;&gt;Frontend&lt;/b&gt;&lt;/div&gt;&lt;div style=&quot;font-size: 14px;&quot;&gt;Single-File Webanwendung &lt;br&gt;&lt;/div&gt;&lt;div style=&quot;font-size: 14px;&quot;&gt;[Vue.js]&lt;/div&gt;&lt;div style=&quot;font-size: 14px;&quot;&gt;&lt;br style=&quot;font-size: 14px;&quot;&gt;&lt;/div&gt;&lt;div style=&quot;font-size: 14px;&quot;&gt;stellt Benutzeroberfläche über Webbrowser zur Verfügung&lt;br style=&quot;font-size: 14px;&quot;&gt;&lt;/div&gt;&lt;div style=&quot;font-size: 14px;&quot;&gt;&lt;br style=&quot;font-size: 14px;&quot;&gt;&lt;/div&gt;" style="rounded=0;whiteSpace=wrap;html=1;fillColor=#dae8fc;strokeColor=#6c8ebf;fontSize=14;verticalAlign=bottom;" vertex="1" parent="1">
          <mxGeometry x="-210" y="345" width="160" height="170" as="geometry" />
        </mxCell>
        <mxCell id="HKSCwBE55XKKI-k4aiUd-5" value="&lt;div style=&quot;font-size: 14px;&quot;&gt;Lese-/Schreibzugriff&lt;/div&gt;&lt;div style=&quot;font-size: 14px;&quot;&gt;[SQL]&lt;br style=&quot;font-size: 14px;&quot;&gt;&lt;/div&gt;" style="edgeStyle=orthogonalEdgeStyle;rounded=0;orthogonalLoop=1;jettySize=auto;html=1;dashed=1;fontSize=14;" edge="1" parent="1" source="HKSCwBE55XKKI-k4aiUd-2" target="HKSCwBE55XKKI-k4aiUd-3">
          <mxGeometry relative="1" as="geometry" />
        </mxCell>
        <mxCell id="HKSCwBE55XKKI-k4aiUd-2" value="&lt;div style=&quot;font-size: 14px;&quot;&gt;&lt;b style=&quot;font-size: 14px;&quot;&gt;Backend&lt;/b&gt;&lt;/div&gt;&lt;div style=&quot;font-size: 14px;&quot;&gt;REST-API &lt;br style=&quot;font-size: 14px;&quot;&gt;&lt;/div&gt;&lt;div style=&quot;font-size: 14px;&quot;&gt;[.NET]&lt;/div&gt;&lt;div style=&quot;font-size: 14px;&quot;&gt;&lt;br style=&quot;font-size: 14px;&quot;&gt;&lt;/div&gt;&lt;div style=&quot;font-size: 14px;&quot;&gt;stellt Geschäftslogik zur Datenabfrage über REST-API bereit&lt;br style=&quot;font-size: 14px;&quot;&gt;&lt;/div&gt;" style="rounded=0;whiteSpace=wrap;html=1;fillColor=#d5e8d4;strokeColor=#82b366;fontSize=14;verticalAlign=middle;" vertex="1" parent="1">
          <mxGeometry x="97" y="345" width="160" height="170" as="geometry" />
        </mxCell>
        <mxCell id="HKSCwBE55XKKI-k4aiUd-3" value="&lt;div&gt;&lt;b&gt;SQL-Datenbank&lt;br&gt;&lt;/b&gt;&lt;/div&gt;&lt;div&gt;&lt;div&gt;[PostgreSQL]&lt;b&gt;&lt;br&gt;&lt;/b&gt;&lt;/div&gt;&lt;div&gt;&lt;br&gt;&lt;/div&gt;Zwischenspeicher für bereits aufgerufene Pokemon-Daten&lt;br&gt;&lt;/div&gt;" style="shape=cylinder3;whiteSpace=wrap;html=1;boundedLbl=1;backgroundOutline=1;size=15;labelPosition=center;verticalLabelPosition=middle;align=center;verticalAlign=middle;fillColor=#f8cecc;strokeColor=#b85450;fontSize=14;fontStyle=0" vertex="1" parent="1">
          <mxGeometry x="101.5" y="640" width="151" height="140" as="geometry" />
        </mxCell>
        <mxCell id="HKSCwBE55XKKI-k4aiUd-9" style="edgeStyle=orthogonalEdgeStyle;rounded=0;orthogonalLoop=1;jettySize=auto;html=1;entryX=0;entryY=0.5;entryDx=0;entryDy=0;endArrow=none;endFill=0;" edge="1" parent="1" source="HKSCwBE55XKKI-k4aiUd-7" target="HKSCwBE55XKKI-k4aiUd-2">
          <mxGeometry relative="1" as="geometry" />
        </mxCell>
        <mxCell id="HKSCwBE55XKKI-k4aiUd-7" value="REST-API" style="shape=providedRequiredInterface;html=1;verticalLabelPosition=bottom;sketch=0;direction=west;fontSize=13;" vertex="1" parent="1">
          <mxGeometry x="10" y="420" width="20" height="20" as="geometry" />
        </mxCell>
        <mxCell id="HKSCwBE55XKKI-k4aiUd-11" style="edgeStyle=orthogonalEdgeStyle;rounded=0;orthogonalLoop=1;jettySize=auto;html=1;entryX=1;entryY=0.5;entryDx=0;entryDy=0;endArrow=none;endFill=0;" edge="1" parent="1" source="HKSCwBE55XKKI-k4aiUd-10" target="HKSCwBE55XKKI-k4aiUd-2">
          <mxGeometry relative="1" as="geometry" />
        </mxCell>
        <mxCell id="HKSCwBE55XKKI-k4aiUd-12" style="edgeStyle=orthogonalEdgeStyle;rounded=0;orthogonalLoop=1;jettySize=auto;html=1;entryX=0;entryY=0.5;entryDx=0;entryDy=0;endArrow=none;endFill=0;" edge="1" parent="1" source="HKSCwBE55XKKI-k4aiUd-10" target="zNEgu30txlpyItWICn7m-25">
          <mxGeometry relative="1" as="geometry" />
        </mxCell>
        <mxCell id="HKSCwBE55XKKI-k4aiUd-10" value="REST-API" style="shape=providedRequiredInterface;html=1;verticalLabelPosition=bottom;sketch=0;direction=west;fontSize=13;" vertex="1" parent="1">
          <mxGeometry x="380" y="420" width="20" height="20" as="geometry" />
        </mxCell>
      </root>
    </mxGraphModel>
  </diagram>
</mxfile>
